# xmcd CD database file
#
# Track frame offsets:
#	151
#	22230
#	42805
#	62401
#	71961
#	92664
#	110795
#	127234
#	158131
#	185838
#	200557
#	220364
#
# Disc length: 3186 seconds
#
# Revision: 0
# Processed by: cddbd v1.5.1PL0 Copyright (c) Steve Scherf et al.
# Submitted via: CDex 1.51
#
DISCID=bf0c700c
DTITLE=Amii Stewart - Amii in Concert for IBM in Malta
DYEAR=2000
DGENRE=Jazz
TTITLE0=Comfort Ye my people
TTITLE1=New Orleans Medley, Basin street blues, I ain't got nothing but the blues
TTITLE2=Tu ca nun chiagne
TTITLE3=cho cho ch'boogie
TTITLE4=Why
TTITLE5=September morn
TTITLE6=Simple Words
TTITLE7=Rhythem and blues medley, you are my sunshine, natural woman, Dr. Feelgood, Respect
TTITLE8=Been too long in NYC
TTITLE9=Knock on wood
TTITLE10=Song for Daddy
TTITLE11=Indifferentemente
EXTD=YEAR: 2000
EXTT0=
EXTT1=
EXTT2=
EXTT3=
EXTT4=
EXTT5=
EXTT6=
EXTT7=
EXTT8=
EXTT9=
EXTT10=
EXTT11=
PLAYORDER=
